<svg width="125" height="25" viewBox="0 0 125 25" fill="none" xmlns="http://www.w3.org/2000/svg">
<path d="M29.2904 20.3103L25.0904 16.1303L26.7704 14.4503L30.9504 18.6303L29.2904 20.3103ZM24.2104 20.3103C22.7704 20.3103 21.527 19.997 20.4804 19.3703C19.4404 18.7436 18.637 17.867 18.0704 16.7403C17.5104 15.6136 17.2304 14.3036 17.2304 12.8103C17.2304 11.317 17.5104 10.007 18.0704 8.88031C18.637 7.75365 19.4404 6.87698 20.4804 6.25031C21.527 5.62365 22.7704 5.31031 24.2104 5.31031C25.6504 5.31031 26.8904 5.62365 27.9304 6.25031C28.977 6.87698 29.7804 7.75365 30.3404 8.88031C30.907 10.007 31.1904 11.317 31.1904 12.8103C31.1904 14.3036 30.907 15.6136 30.3404 16.7403C29.7804 17.867 28.977 18.7436 27.9304 19.3703C26.8904 19.997 25.6504 20.3103 24.2104 20.3103ZM24.2104 17.7503C25.1237 17.7636 25.8837 17.567 26.4904 17.1603C27.097 16.7536 27.5504 16.177 27.8504 15.4303C28.157 14.6836 28.3104 13.8103 28.3104 12.8103C28.3104 11.8103 28.157 10.9436 27.8504 10.2103C27.5504 9.47698 27.097 8.90698 26.4904 8.50031C25.8837 8.09365 25.1237 7.88365 24.2104 7.87031C23.297 7.85698 22.537 8.05365 21.9304 8.46031C21.3237 8.86698 20.867 9.44365 20.5604 10.1903C20.2604 10.937 20.1104 11.8103 20.1104 12.8103C20.1104 13.8103 20.2604 14.677 20.5604 15.4103C20.867 16.1436 21.3237 16.7136 21.9304 17.1203C22.537 17.527 23.297 17.737 24.2104 17.7503ZM40.0466 20.3103C38.8866 20.3103 37.8666 20.077 36.9866 19.6103C36.1066 19.137 35.42 18.4736 34.9266 17.6203C34.4333 16.767 34.1866 15.7636 34.1866 14.6103V5.63031L36.9466 5.61031V14.5903C36.9466 15.0636 37.0266 15.4936 37.1866 15.8803C37.3466 16.267 37.5666 16.6003 37.8466 16.8803C38.1333 17.1603 38.4633 17.377 38.8366 17.5303C39.2166 17.677 39.62 17.7503 40.0466 17.7503C40.4866 17.7503 40.8933 17.6736 41.2666 17.5203C41.6466 17.367 41.9766 17.1503 42.2566 16.8703C42.5366 16.5903 42.7533 16.257 42.9066 15.8703C43.0666 15.4836 43.1466 15.057 43.1466 14.5903V5.61031H45.9066V14.6103C45.9066 15.7636 45.66 16.767 45.1666 17.6203C44.6733 18.4736 43.9866 19.137 43.1066 19.6103C42.2266 20.077 41.2066 20.3103 40.0466 20.3103ZM49.6983 20.0103V5.61031H55.4583C56.485 5.61031 57.315 5.81698 57.9483 6.23031C58.5817 6.63698 59.045 7.15031 59.3383 7.77031C59.6317 8.39031 59.7783 9.01698 59.7783 9.65031C59.7783 10.457 59.595 11.127 59.2283 11.6603C58.8683 12.1936 58.3717 12.5503 57.7383 12.7303V12.2303C58.6383 12.417 59.3117 12.8336 59.7583 13.4803C60.2117 14.127 60.4383 14.8503 60.4383 15.6503C60.4383 16.5103 60.2783 17.267 59.9583 17.9203C59.645 18.5736 59.165 19.087 58.5183 19.4603C57.8717 19.827 57.0583 20.0103 56.0783 20.0103H49.6983ZM52.4583 17.4503H55.7983C56.165 17.4503 56.4917 17.3736 56.7783 17.2203C57.065 17.0603 57.2883 16.8403 57.4483 16.5603C57.615 16.2736 57.6983 15.937 57.6983 15.5503C57.6983 15.2103 57.6283 14.907 57.4883 14.6403C57.3483 14.3736 57.135 14.1636 56.8483 14.0103C56.5683 13.8503 56.2183 13.7703 55.7983 13.7703H52.4583V17.4503ZM52.4583 11.2303H55.4183C55.725 11.2303 55.9983 11.177 56.2383 11.0703C56.4783 10.9636 56.6683 10.8003 56.8083 10.5803C56.9483 10.3536 57.0183 10.0636 57.0183 9.71031C57.0183 9.27031 56.8817 8.90031 56.6083 8.60031C56.335 8.30031 55.9383 8.15031 55.4183 8.15031H52.4583V11.2303ZM63.4327 20.0103V5.61031H69.5127C69.6527 5.61031 69.8394 5.61698 70.0727 5.63031C70.3127 5.63698 70.526 5.65698 70.7127 5.69031C71.5727 5.82365 72.276 6.10698 72.8227 6.54031C73.376 6.97365 73.7827 7.52031 74.0427 8.18031C74.3027 8.83365 74.4327 9.56365 74.4327 10.3703C74.4327 11.577 74.1327 12.6103 73.5327 13.4703C72.9327 14.3236 71.9927 14.8503 70.7127 15.0503L69.5127 15.1303H66.1527V20.0103H63.4327ZM71.5527 20.0103L68.7127 14.1503L71.5127 13.6103L74.6327 20.0103H71.5527ZM66.1527 12.5903H69.3927C69.5327 12.5903 69.686 12.5836 69.8527 12.5703C70.0194 12.557 70.1727 12.5303 70.3127 12.4903C70.6794 12.3903 70.9627 12.2236 71.1627 11.9903C71.3627 11.7503 71.4994 11.487 71.5727 11.2003C71.6527 10.907 71.6927 10.6303 71.6927 10.3703C71.6927 10.1103 71.6527 9.83698 71.5727 9.55031C71.4994 9.25698 71.3627 8.99365 71.1627 8.76031C70.9627 8.52031 70.6794 8.35031 70.3127 8.25031C70.1727 8.21031 70.0194 8.18365 69.8527 8.17031C69.686 8.15698 69.5327 8.15031 69.3927 8.15031H66.1527V12.5903ZM78.0312 20.0103V5.61031H80.7512V20.0103H78.0312ZM84.7491 20.0103V5.61031H89.4091C89.5225 5.61031 89.7558 5.61365 90.1091 5.62031C90.4625 5.62698 90.8025 5.65031 91.1291 5.69031C92.2891 5.83031 93.2725 6.23365 94.0791 6.90031C94.8858 7.56698 95.4991 8.41365 95.9191 9.44031C96.3391 10.467 96.5491 11.5903 96.5491 12.8103C96.5491 14.0303 96.3391 15.1536 95.9191 16.1803C95.4991 17.207 94.8858 18.0536 94.0791 18.7203C93.2725 19.387 92.2891 19.7903 91.1291 19.9303C90.8025 19.9703 90.4625 19.9936 90.1091 20.0003C89.7558 20.007 89.5225 20.0103 89.4091 20.0103H84.7491ZM87.5091 17.4503H89.4091C89.5891 17.4503 89.8325 17.447 90.1391 17.4403C90.4458 17.427 90.7225 17.397 90.9691 17.3503C91.5958 17.2236 92.1058 16.9303 92.4991 16.4703C92.8991 16.0103 93.1925 15.457 93.3791 14.8103C93.5725 14.1636 93.6691 13.497 93.6691 12.8103C93.6691 12.0903 93.5691 11.407 93.3691 10.7603C93.1758 10.1136 92.8791 9.56698 92.4791 9.12031C92.0791 8.67365 91.5758 8.39031 90.9691 8.27031C90.7225 8.21698 90.4458 8.18698 90.1391 8.18031C89.8325 8.17365 89.5891 8.17031 89.4091 8.17031H87.5091V17.4503Z" fill="#0F1218"/>
<path d="M103.952 20.0103L108.352 5.61031H112.412L116.812 20.0103H114.012L110.092 7.31031H110.612L106.752 20.0103H103.952ZM106.592 17.0103V14.4703H114.192V17.0103H106.592ZM119.805 20.0103V5.61031H122.525V20.0103H119.805Z" fill="#DC389D"/>
<path d="M9.62939 6.81905L4.8833 9.62764V10.5134L8.75342 8.29756L13.4985 11.1052V12.1394L8.75342 9.40596L8.02295 9.84834L11.8921 12.1394L11.8198 17.8288L7.00049 20.5632L6.05225 20.0456L10.8706 17.238V12.7302L10.1401 12.2868V16.7204L5.24854 19.6022L4.37256 19.0114L9.19092 16.2038V15.2429L5.24854 17.6071L0.430176 14.7253L0.503418 13.5437L5.24854 16.4255L6.05225 15.9821L2.18213 13.6911V8.00166L3.13135 7.48409V13.1003L3.86182 13.5437V9.03584L8.75342 6.22823L9.62939 6.81905ZM4.88428 11.7692V14.1335L7.00146 15.3161L9.11865 14.1335V11.7692L7.07373 10.5134L4.88428 11.7692Z" fill="url(#paint0_linear_14157_487)"/>
<path d="M0.506592 9.10949L1.38269 8.51837V13.2473L0.506592 12.7301V9.10949Z" fill="url(#paint1_linear_14157_487)"/>
<path d="M13.5029 16.7953L12.6268 17.3125V12.5836L13.5029 13.0269V16.7953Z" fill="url(#paint2_linear_14157_487)"/>
<path d="M13.5005 9.03678L13.5005 10.219L9.48544 7.85438L10.4345 7.26332L13.5005 9.03678Z" fill="url(#paint3_linear_14157_487)"/>
<path d="M7.00377 5.26785L7.95276 5.85916L3.8642 8.22383L3.8642 7.11548L7.00377 5.26785Z" fill="url(#paint4_linear_14157_487)"/>
<path d="M0.505816 16.7948L0.505819 15.6125L4.52127 17.977L3.57216 18.5681L0.505816 16.7948Z" fill="url(#paint5_linear_14157_487)"/>
<defs>
<linearGradient id="paint0_linear_14157_487" x1="7.08548" y1="7.72146" x2="6.96743" y2="20.5632" gradientUnits="userSpaceOnUse">
<stop stop-color="#DC389D"/>
<stop offset="1" stop-color="#8624C5"/>
</linearGradient>
<linearGradient id="paint1_linear_14157_487" x1="0.952761" y1="9.01097" x2="0.761511" y2="13.239" gradientUnits="userSpaceOnUse">
<stop stop-color="#DC389D"/>
<stop offset="1" stop-color="#8624C5"/>
</linearGradient>
<linearGradient id="paint2_linear_14157_487" x1="13.0568" y1="16.8199" x2="13.248" y2="12.5919" gradientUnits="userSpaceOnUse">
<stop stop-color="#DC389D"/>
<stop offset="1" stop-color="#8624C5"/>
</linearGradient>
<linearGradient id="paint3_linear_14157_487" x1="13.3297" y1="9.53902" x2="9.78684" y2="7.33427" gradientUnits="userSpaceOnUse">
<stop stop-color="#DC389D"/>
<stop offset="1" stop-color="#8624C5"/>
</linearGradient>
<linearGradient id="paint4_linear_14157_487" x1="7.33121" y1="5.73399" x2="3.52624" y2="7.56827" gradientUnits="userSpaceOnUse">
<stop stop-color="#DC389D"/>
<stop offset="1" stop-color="#8624C5"/>
</linearGradient>
<linearGradient id="paint5_linear_14157_487" x1="0.676682" y1="16.2925" x2="4.2197" y2="18.4974" gradientUnits="userSpaceOnUse">
<stop stop-color="#DC389D"/>
<stop offset="1" stop-color="#8624C5"/>
</linearGradient>
</defs>
</svg>
