<svg width="185" height="25" viewBox="0 0 185 25" fill="none" xmlns="http://www.w3.org/2000/svg">
<path d="M45.6204 23.4603L39.3204 17.1903L41.8404 14.6703L48.1104 20.9403L45.6204 23.4603ZM38.0004 23.4603C35.8404 23.4603 33.9754 22.9903 32.4054 22.0503C30.8454 21.1103 29.6404 19.7953 28.7904 18.1053C27.9504 16.4153 27.5304 14.4503 27.5304 12.2103C27.5304 9.97031 27.9504 8.00531 28.7904 6.31531C29.6404 4.62531 30.8454 3.31031 32.4054 2.37031C33.9754 1.43031 35.8404 0.960315 38.0004 0.960315C40.1604 0.960315 42.0204 1.43031 43.5804 2.37031C45.1504 3.31031 46.3554 4.62531 47.1954 6.31531C48.0454 8.00531 48.4704 9.97031 48.4704 12.2103C48.4704 14.4503 48.0454 16.4153 47.1954 18.1053C46.3554 19.7953 45.1504 21.1103 43.5804 22.0503C42.0204 22.9903 40.1604 23.4603 38.0004 23.4603ZM38.0004 19.6203C39.3704 19.6403 40.5104 19.3453 41.4204 18.7353C42.3304 18.1253 43.0104 17.2603 43.4604 16.1403C43.9204 15.0203 44.1504 13.7103 44.1504 12.2103C44.1504 10.7103 43.9204 9.41031 43.4604 8.31031C43.0104 7.21031 42.3304 6.35531 41.4204 5.74531C40.5104 5.13531 39.3704 4.82031 38.0004 4.80031C36.6304 4.78031 35.4904 5.07531 34.5804 5.68531C33.6704 6.29531 32.9854 7.16031 32.5254 8.28031C32.0754 9.40031 31.8504 10.7103 31.8504 12.2103C31.8504 13.7103 32.0754 15.0103 32.5254 16.1103C32.9854 17.2103 33.6704 18.0653 34.5804 18.6753C35.4904 19.2853 36.6304 19.6003 38.0004 19.6203ZM61.2547 23.4603C59.5147 23.4603 57.9847 23.1103 56.6647 22.4103C55.3447 21.7003 54.3147 20.7053 53.5747 19.4253C52.8347 18.1453 52.4647 16.6403 52.4647 14.9103V1.44031L56.6047 1.41031V14.8803C56.6047 15.5903 56.7247 16.2353 56.9647 16.8153C57.2047 17.3953 57.5347 17.8953 57.9547 18.3153C58.3847 18.7353 58.8797 19.0603 59.4397 19.2903C60.0097 19.5103 60.6147 19.6203 61.2547 19.6203C61.9147 19.6203 62.5247 19.5053 63.0847 19.2753C63.6547 19.0453 64.1497 18.7203 64.5697 18.3003C64.9897 17.8803 65.3147 17.3803 65.5447 16.8003C65.7847 16.2203 65.9047 15.5803 65.9047 14.8803V1.41031H70.0447V14.9103C70.0447 16.6403 69.6747 18.1453 68.9347 19.4253C68.1947 20.7053 67.1647 21.7003 65.8447 22.4103C64.5247 23.1103 62.9947 23.4603 61.2547 23.4603ZM75.2323 23.0103V1.41031H83.8723C85.4123 1.41031 86.6573 1.72031 87.6073 2.34031C88.5573 2.95031 89.2523 3.72031 89.6923 4.65031C90.1323 5.58031 90.3523 6.52031 90.3523 7.47031C90.3523 8.68031 90.0773 9.68531 89.5273 10.4853C88.9873 11.2853 88.2423 11.8203 87.2923 12.0903V11.3403C88.6423 11.6203 89.6523 12.2453 90.3223 13.2153C91.0023 14.1853 91.3423 15.2703 91.3423 16.4703C91.3423 17.7603 91.1023 18.8953 90.6223 19.8753C90.1523 20.8553 89.4323 21.6253 88.4623 22.1853C87.4923 22.7353 86.2723 23.0103 84.8023 23.0103H75.2323ZM79.3723 19.1703H84.3823C84.9323 19.1703 85.4223 19.0553 85.8523 18.8253C86.2823 18.5853 86.6173 18.2553 86.8573 17.8353C87.1073 17.4053 87.2323 16.9003 87.2323 16.3203C87.2323 15.8103 87.1273 15.3553 86.9173 14.9553C86.7073 14.5553 86.3873 14.2403 85.9573 14.0103C85.5373 13.7703 85.0123 13.6503 84.3823 13.6503H79.3723V19.1703ZM79.3723 9.84031H83.8123C84.2723 9.84031 84.6823 9.76031 85.0423 9.60031C85.4023 9.44031 85.6873 9.19531 85.8973 8.86531C86.1073 8.52531 86.2123 8.09031 86.2123 7.56031C86.2123 6.90031 86.0073 6.34531 85.5973 5.89531C85.1873 5.44531 84.5923 5.22031 83.8123 5.22031H79.3723V9.84031ZM95.3339 23.0103V1.41031H104.454C104.664 1.41031 104.944 1.42031 105.294 1.44031C105.654 1.45031 105.974 1.48031 106.254 1.53031C107.544 1.73031 108.599 2.15531 109.419 2.80531C110.249 3.45531 110.859 4.27531 111.249 5.26531C111.639 6.24531 111.834 7.34031 111.834 8.55031C111.834 10.3603 111.384 11.9103 110.484 13.2003C109.584 14.4803 108.174 15.2703 106.254 15.5703L104.454 15.6903H99.4139V23.0103H95.3339ZM107.514 23.0103L103.254 14.2203L107.454 13.4103L112.134 23.0103H107.514ZM99.4139 11.8803H104.274C104.484 11.8803 104.714 11.8703 104.964 11.8503C105.214 11.8303 105.444 11.7903 105.654 11.7303C106.204 11.5803 106.629 11.3303 106.929 10.9803C107.229 10.6203 107.434 10.2253 107.544 9.79531C107.664 9.35531 107.724 8.94031 107.724 8.55031C107.724 8.16031 107.664 7.75031 107.544 7.32031C107.434 6.88031 107.229 6.48531 106.929 6.13531C106.629 5.77531 106.204 5.52031 105.654 5.37031C105.444 5.31031 105.214 5.27031 104.964 5.25031C104.714 5.23031 104.484 5.22031 104.274 5.22031H99.4139V11.8803ZM116.732 23.0103V1.41031H120.812V23.0103H116.732ZM126.308 23.0103V1.41031H133.298C133.468 1.41031 133.818 1.41531 134.348 1.42531C134.878 1.43531 135.388 1.47031 135.878 1.53031C137.618 1.74031 139.093 2.34531 140.303 3.34531C141.513 4.34531 142.433 5.61531 143.063 7.15531C143.693 8.69531 144.008 10.3803 144.008 12.2103C144.008 14.0403 143.693 15.7253 143.063 17.2653C142.433 18.8053 141.513 20.0753 140.303 21.0753C139.093 22.0753 137.618 22.6803 135.878 22.8903C135.388 22.9503 134.878 22.9853 134.348 22.9953C133.818 23.0053 133.468 23.0103 133.298 23.0103H126.308ZM130.448 19.1703H133.298C133.568 19.1703 133.933 19.1653 134.393 19.1553C134.853 19.1353 135.268 19.0903 135.638 19.0203C136.578 18.8303 137.343 18.3903 137.933 17.7003C138.533 17.0103 138.973 16.1803 139.253 15.2103C139.543 14.2403 139.688 13.2403 139.688 12.2103C139.688 11.1303 139.538 10.1053 139.238 9.13531C138.948 8.16531 138.503 7.34531 137.903 6.67531C137.303 6.00531 136.548 5.58031 135.638 5.40031C135.268 5.32031 134.853 5.27531 134.393 5.26531C133.933 5.25531 133.568 5.25031 133.298 5.25031H130.448V19.1703Z" fill="#0F1218"/>
<path d="M154.113 23.0103L160.713 1.41031H166.803L173.403 23.0103H169.203L163.323 3.96031H164.103L158.313 23.0103H154.113ZM158.073 18.5103V14.7003H169.473V18.5103H158.073ZM177.392 23.0103V1.41031H181.472V23.0103H177.392Z" fill="#DC389D"/>
<path d="M14.2378 2.69L7.22119 6.84137V8.15289L12.9419 4.87457L19.9585 9.02594V10.5562L12.9419 6.51324L11.8628 7.16949L17.5835 10.5562L17.4761 18.9683L10.3511 23.0103L8.94775 22.2457L16.0728 18.0943V11.4302L14.9927 10.774V17.3297L7.76025 21.5904L6.46533 20.7164L13.5894 16.565V15.1441L7.76025 18.6402L0.63623 14.3795L0.744629 12.6314L7.76025 16.8922L8.94775 16.2369L3.22705 12.8502V4.43805L4.63037 3.6734V11.9761L5.70947 12.6314V5.96735L12.9419 1.81598L14.2378 2.69ZM7.22119 10.0084V13.5045L10.3511 15.2525L13.4819 13.5045V10.0084L10.4595 8.15094L7.22119 10.0084Z" fill="url(#paint0_linear_14157_503)"/>
<path d="M0.749023 6.076L2.04437 5.20201V12.1939L0.749023 11.4292V6.076Z" fill="url(#paint1_linear_14157_503)"/>
<path d="M19.9644 17.4398L18.669 18.2045V11.2126L19.9644 11.8681V17.4398Z" fill="url(#paint2_linear_14157_503)"/>
<path d="M19.9609 5.96852L19.9609 7.7165L14.0244 4.22031L15.4276 3.34641L19.9609 5.96852Z" fill="url(#paint3_linear_14157_503)"/>
<path d="M10.3553 0.396027L11.7584 1.2703L5.71333 4.76655L5.71333 3.12781L10.3553 0.396027Z" fill="url(#paint4_linear_14157_503)"/>
<path d="M0.747866 17.439L0.747871 15.691L6.68485 19.187L5.28157 20.061L0.747866 17.439Z" fill="url(#paint5_linear_14157_503)"/>
<defs>
<linearGradient id="paint0_linear_14157_503" x1="10.4765" y1="4.02373" x2="10.3019" y2="23.0104" gradientUnits="userSpaceOnUse">
<stop stop-color="#DC389D"/>
<stop offset="1" stop-color="#8624C5"/>
</linearGradient>
<linearGradient id="paint1_linear_14157_503" x1="1.4087" y1="5.93034" x2="1.12593" y2="12.1817" gradientUnits="userSpaceOnUse">
<stop stop-color="#DC389D"/>
<stop offset="1" stop-color="#8624C5"/>
</linearGradient>
<linearGradient id="paint2_linear_14157_503" x1="19.3047" y1="17.4762" x2="19.5874" y2="11.2248" gradientUnits="userSpaceOnUse">
<stop stop-color="#DC389D"/>
<stop offset="1" stop-color="#8624C5"/>
</linearGradient>
<linearGradient id="paint3_linear_14157_503" x1="19.7083" y1="6.71111" x2="14.47" y2="3.45131" gradientUnits="userSpaceOnUse">
<stop stop-color="#DC389D"/>
<stop offset="1" stop-color="#8624C5"/>
</linearGradient>
<linearGradient id="paint4_linear_14157_503" x1="10.8394" y1="1.08523" x2="5.21365" y2="3.79728" gradientUnits="userSpaceOnUse">
<stop stop-color="#DC389D"/>
<stop offset="1" stop-color="#8624C5"/>
</linearGradient>
<linearGradient id="paint5_linear_14157_503" x1="1.0005" y1="16.6964" x2="6.23898" y2="19.9564" gradientUnits="userSpaceOnUse">
<stop stop-color="#DC389D"/>
<stop offset="1" stop-color="#8624C5"/>
</linearGradient>
</defs>
</svg>
