<svg width="125" height="24" viewBox="0 0 125 24" fill="none" xmlns="http://www.w3.org/2000/svg">
<path d="M29.2904 20.3L25.0904 16.12L26.7704 14.44L30.9504 18.62L29.2904 20.3ZM24.2104 20.3C22.7704 20.3 21.527 19.9867 20.4804 19.36C19.4404 18.7333 18.637 17.8567 18.0704 16.73C17.5104 15.6033 17.2304 14.2933 17.2304 12.8C17.2304 11.3067 17.5104 9.99667 18.0704 8.87C18.637 7.74333 19.4404 6.86667 20.4804 6.24C21.527 5.61333 22.7704 5.3 24.2104 5.3C25.6504 5.3 26.8904 5.61333 27.9304 6.24C28.977 6.86667 29.7804 7.74333 30.3404 8.87C30.907 9.99667 31.1904 11.3067 31.1904 12.8C31.1904 14.2933 30.907 15.6033 30.3404 16.73C29.7804 17.8567 28.977 18.7333 27.9304 19.36C26.8904 19.9867 25.6504 20.3 24.2104 20.3ZM24.2104 17.74C25.1237 17.7533 25.8837 17.5567 26.4904 17.15C27.097 16.7433 27.5504 16.1667 27.8504 15.42C28.157 14.6733 28.3104 13.8 28.3104 12.8C28.3104 11.8 28.157 10.9333 27.8504 10.2C27.5504 9.46667 27.097 8.89667 26.4904 8.49C25.8837 8.08333 25.1237 7.87333 24.2104 7.86C23.297 7.84667 22.537 8.04333 21.9304 8.45C21.3237 8.85667 20.867 9.43333 20.5604 10.18C20.2604 10.9267 20.1104 11.8 20.1104 12.8C20.1104 13.8 20.2604 14.6667 20.5604 15.4C20.867 16.1333 21.3237 16.7033 21.9304 17.11C22.537 17.5167 23.297 17.7267 24.2104 17.74ZM40.0466 20.3C38.8866 20.3 37.8666 20.0667 36.9866 19.6C36.1066 19.1267 35.42 18.4633 34.9266 17.61C34.4333 16.7567 34.1866 15.7533 34.1866 14.6V5.62L36.9466 5.6V14.58C36.9466 15.0533 37.0266 15.4833 37.1866 15.87C37.3466 16.2567 37.5666 16.59 37.8466 16.87C38.1333 17.15 38.4633 17.3667 38.8366 17.52C39.2166 17.6667 39.62 17.74 40.0466 17.74C40.4866 17.74 40.8933 17.6633 41.2666 17.51C41.6466 17.3567 41.9766 17.14 42.2566 16.86C42.5366 16.58 42.7533 16.2467 42.9066 15.86C43.0666 15.4733 43.1466 15.0467 43.1466 14.58V5.6H45.9066V14.6C45.9066 15.7533 45.66 16.7567 45.1666 17.61C44.6733 18.4633 43.9866 19.1267 43.1066 19.6C42.2266 20.0667 41.2066 20.3 40.0466 20.3ZM49.6983 20V5.6H55.4583C56.485 5.6 57.315 5.80667 57.9483 6.22C58.5817 6.62667 59.045 7.14 59.3383 7.76C59.6317 8.38 59.7783 9.00667 59.7783 9.64C59.7783 10.4467 59.595 11.1167 59.2283 11.65C58.8683 12.1833 58.3717 12.54 57.7383 12.72V12.22C58.6383 12.4067 59.3117 12.8233 59.7583 13.47C60.2117 14.1167 60.4383 14.84 60.4383 15.64C60.4383 16.5 60.2783 17.2567 59.9583 17.91C59.645 18.5633 59.165 19.0767 58.5183 19.45C57.8717 19.8167 57.0583 20 56.0783 20H49.6983ZM52.4583 17.44H55.7983C56.165 17.44 56.4917 17.3633 56.7783 17.21C57.065 17.05 57.2883 16.83 57.4483 16.55C57.615 16.2633 57.6983 15.9267 57.6983 15.54C57.6983 15.2 57.6283 14.8967 57.4883 14.63C57.3483 14.3633 57.135 14.1533 56.8483 14C56.5683 13.84 56.2183 13.76 55.7983 13.76H52.4583V17.44ZM52.4583 11.22H55.4183C55.725 11.22 55.9983 11.1667 56.2383 11.06C56.4783 10.9533 56.6683 10.79 56.8083 10.57C56.9483 10.3433 57.0183 10.0533 57.0183 9.7C57.0183 9.26 56.8817 8.89 56.6083 8.59C56.335 8.29 55.9383 8.14 55.4183 8.14H52.4583V11.22ZM63.4327 20V5.6H69.5127C69.6527 5.6 69.8394 5.60667 70.0727 5.62C70.3127 5.62667 70.526 5.64667 70.7127 5.68C71.5727 5.81333 72.276 6.09667 72.8227 6.53C73.376 6.96333 73.7827 7.51 74.0427 8.17C74.3027 8.82333 74.4327 9.55333 74.4327 10.36C74.4327 11.5667 74.1327 12.6 73.5327 13.46C72.9327 14.3133 71.9927 14.84 70.7127 15.04L69.5127 15.12H66.1527V20H63.4327ZM71.5527 20L68.7127 14.14L71.5127 13.6L74.6327 20H71.5527ZM66.1527 12.58H69.3927C69.5327 12.58 69.686 12.5733 69.8527 12.56C70.0194 12.5467 70.1727 12.52 70.3127 12.48C70.6794 12.38 70.9627 12.2133 71.1627 11.98C71.3627 11.74 71.4994 11.4767 71.5727 11.19C71.6527 10.8967 71.6927 10.62 71.6927 10.36C71.6927 10.1 71.6527 9.82667 71.5727 9.54C71.4994 9.24667 71.3627 8.98333 71.1627 8.75C70.9627 8.51 70.6794 8.34 70.3127 8.24C70.1727 8.2 70.0194 8.17333 69.8527 8.16C69.686 8.14667 69.5327 8.14 69.3927 8.14H66.1527V12.58ZM78.0312 20V5.6H80.7512V20H78.0312ZM84.7491 20V5.6H89.4091C89.5225 5.6 89.7558 5.60333 90.1091 5.61C90.4625 5.61667 90.8025 5.64 91.1291 5.68C92.2891 5.82 93.2725 6.22333 94.0791 6.89C94.8858 7.55667 95.4991 8.40333 95.9191 9.43C96.3391 10.4567 96.5491 11.58 96.5491 12.8C96.5491 14.02 96.3391 15.1433 95.9191 16.17C95.4991 17.1967 94.8858 18.0433 94.0791 18.71C93.2725 19.3767 92.2891 19.78 91.1291 19.92C90.8025 19.96 90.4625 19.9833 90.1091 19.99C89.7558 19.9967 89.5225 20 89.4091 20H84.7491ZM87.5091 17.44H89.4091C89.5891 17.44 89.8325 17.4367 90.1391 17.43C90.4458 17.4167 90.7225 17.3867 90.9691 17.34C91.5958 17.2133 92.1058 16.92 92.4991 16.46C92.8991 16 93.1925 15.4467 93.3791 14.8C93.5725 14.1533 93.6691 13.4867 93.6691 12.8C93.6691 12.08 93.5691 11.3967 93.3691 10.75C93.1758 10.1033 92.8791 9.55667 92.4791 9.11C92.0791 8.66333 91.5758 8.38 90.9691 8.26C90.7225 8.20667 90.4458 8.17667 90.1391 8.17C89.8325 8.16333 89.5891 8.16 89.4091 8.16H87.5091V17.44Z" fill="white"/>
<path d="M103.952 20L108.352 5.6H112.412L116.812 20H114.012L110.092 7.3H110.612L106.752 20H103.952ZM106.592 17V14.46H114.192V17H106.592ZM119.805 20V5.6H122.525V20H119.805Z" fill="#DC389D"/>
<path d="M9.62939 6.80873L4.8833 9.61732V10.5031L8.75342 8.28725L13.4985 11.0949V12.129L8.75342 9.39565L8.02295 9.83803L11.8921 12.129L11.8198 17.8185L7.00049 20.5529L6.05225 20.0353L10.8706 17.2277V12.7199L10.1401 12.2765V16.7101L5.24854 19.5919L4.37256 19.0011L9.19092 16.1935V15.2326L5.24854 17.5968L0.430176 14.715L0.503418 13.5333L5.24854 16.4152L6.05225 15.9718L2.18213 13.6808V7.99135L3.13135 7.47377V13.09L3.86182 13.5333V9.02553L8.75342 6.21791L9.62939 6.80873ZM4.88428 11.7589V14.1232L7.00146 15.3058L9.11865 14.1232V11.7589L7.07373 10.5031L4.88428 11.7589Z" fill="url(#paint0_linear_14159_454)"/>
<path d="M0.506592 9.09918L1.38269 8.50806V13.237L0.506592 12.7198V9.09918Z" fill="url(#paint1_linear_14159_454)"/>
<path d="M13.5029 16.785L12.6268 17.3022V12.5733L13.5029 13.0166V16.785Z" fill="url(#paint2_linear_14159_454)"/>
<path d="M13.5005 9.02646L13.5005 10.2087L9.48544 7.84406L10.4345 7.25301L13.5005 9.02646Z" fill="url(#paint3_linear_14159_454)"/>
<path d="M7.00377 5.25754L7.95276 5.84884L3.8642 8.21351L3.8642 7.10517L7.00377 5.25754Z" fill="url(#paint4_linear_14159_454)"/>
<path d="M0.505816 16.7845L0.505819 15.6022L4.52127 17.9667L3.57216 18.5578L0.505816 16.7845Z" fill="url(#paint5_linear_14159_454)"/>
<defs>
<linearGradient id="paint0_linear_14159_454" x1="7.08548" y1="7.71114" x2="6.96743" y2="20.5529" gradientUnits="userSpaceOnUse">
<stop stop-color="#DC389D"/>
<stop offset="1" stop-color="#8624C5"/>
</linearGradient>
<linearGradient id="paint1_linear_14159_454" x1="0.952761" y1="9.00066" x2="0.761511" y2="13.2287" gradientUnits="userSpaceOnUse">
<stop stop-color="#DC389D"/>
<stop offset="1" stop-color="#8624C5"/>
</linearGradient>
<linearGradient id="paint2_linear_14159_454" x1="13.0568" y1="16.8096" x2="13.248" y2="12.5816" gradientUnits="userSpaceOnUse">
<stop stop-color="#DC389D"/>
<stop offset="1" stop-color="#8624C5"/>
</linearGradient>
<linearGradient id="paint3_linear_14159_454" x1="13.3297" y1="9.52871" x2="9.78684" y2="7.32396" gradientUnits="userSpaceOnUse">
<stop stop-color="#DC389D"/>
<stop offset="1" stop-color="#8624C5"/>
</linearGradient>
<linearGradient id="paint4_linear_14159_454" x1="7.33121" y1="5.72368" x2="3.52624" y2="7.55795" gradientUnits="userSpaceOnUse">
<stop stop-color="#DC389D"/>
<stop offset="1" stop-color="#8624C5"/>
</linearGradient>
<linearGradient id="paint5_linear_14159_454" x1="0.676682" y1="16.2822" x2="4.2197" y2="18.4871" gradientUnits="userSpaceOnUse">
<stop stop-color="#DC389D"/>
<stop offset="1" stop-color="#8624C5"/>
</linearGradient>
</defs>
</svg>
