<svg width="144" height="36" viewBox="0 0 144 36" fill="none" xmlns="http://www.w3.org/2000/svg">
<path d="M22.4995 4.20876L11.4126 10.7039V12.7547L20.4526 7.6277L31.5396 14.1218V16.5154L20.4526 10.1912L18.7466 11.2166L27.7876 16.5154L27.6167 29.6756L16.3589 35.9998L14.1411 34.8035L25.3989 28.3084V17.8826L23.6938 16.8572V27.1121L12.2651 33.7781L10.2183 32.4109L21.4761 25.9158V23.6941L12.2651 29.1629L1.00732 22.4978L1.17822 19.7625L12.2651 26.4285L14.1411 25.4031L5.10107 20.1043V6.94411L7.31885 5.74684V18.7371L9.02393 19.7625V9.33669L20.4526 2.84157L22.4995 4.20876ZM11.4126 15.659V21.1287L16.3589 23.8631L21.3052 21.1287V15.659L16.5298 12.7537L11.4126 15.659Z" fill="url(#paint0_linear_12151_6364)"/>
<path d="M1.18408 9.50592L3.23095 8.13857V19.0774L1.18408 17.881V9.50592Z" fill="url(#paint1_linear_12151_6364)"/>
<path d="M31.5479 27.2847L29.501 28.4812V17.5423L31.5479 18.5678V27.2847Z" fill="url(#paint2_linear_12151_6364)"/>
<path d="M31.5414 9.33765L31.5414 12.0724L22.1607 6.60256L24.3781 5.23535L31.5414 9.33765Z" fill="url(#paint3_linear_12151_6364)"/>
<path d="M16.3654 0.619584L18.5826 1.98738L9.03032 7.45726L9.03032 4.89347L16.3654 0.619584Z" fill="url(#paint4_linear_12151_6364)"/>
<path d="M1.18176 27.2833L1.18177 24.5486L10.5633 30.018L8.34581 31.3854L1.18176 27.2833Z" fill="url(#paint5_linear_12151_6364)"/>
<path d="M46.6688 17.81L43.7918 14.947L44.8488 13.89L47.7118 16.753L46.6688 17.81ZM43.0428 17.81C42.0348 17.81 41.1715 17.5907 40.4528 17.152C39.7341 16.7087 39.1811 16.0927 38.7938 15.304C38.4111 14.5153 38.2198 13.6007 38.2198 12.56C38.2198 11.5193 38.4111 10.6047 38.7938 9.81601C39.1811 9.02734 39.7341 8.41367 40.4528 7.97501C41.1715 7.53167 42.0348 7.31001 43.0428 7.31001C44.0508 7.31001 44.9141 7.53167 45.6328 7.97501C46.3561 8.41367 46.9091 9.02734 47.2918 9.81601C47.6791 10.6047 47.8728 11.5193 47.8728 12.56C47.8728 13.6007 47.6791 14.5153 47.2918 15.304C46.9091 16.0927 46.3561 16.7087 45.6328 17.152C44.9141 17.5907 44.0508 17.81 43.0428 17.81ZM43.0428 16.221C43.7195 16.2257 44.2818 16.0763 44.7298 15.773C45.1825 15.4697 45.5208 15.0427 45.7448 14.492C45.9735 13.9413 46.0878 13.2973 46.0878 12.56C46.0878 11.8227 45.9735 11.1833 45.7448 10.642C45.5208 10.096 45.1825 9.67134 44.7298 9.36801C44.2818 9.06467 43.7195 8.90834 43.0428 8.89901C42.3661 8.89434 41.8038 9.04367 41.3558 9.34701C40.9078 9.65034 40.5695 10.0773 40.3408 10.628C40.1168 11.1787 40.0048 11.8227 40.0048 12.56C40.0048 13.2973 40.1168 13.939 40.3408 14.485C40.5648 15.0263 40.9008 15.4487 41.3488 15.752C41.8015 16.0553 42.3661 16.2117 43.0428 16.221ZM54.3261 17.81C53.5235 17.81 52.8165 17.6467 52.2051 17.32C51.5985 16.9933 51.1225 16.5337 50.7771 15.941C50.4365 15.3483 50.2661 14.653 50.2661 13.855V7.53401L51.9741 7.52001V13.813C51.9741 14.191 52.0371 14.5293 52.1631 14.828C52.2938 15.1267 52.4688 15.381 52.6881 15.591C52.9075 15.7963 53.1595 15.9527 53.4441 16.06C53.7288 16.1673 54.0228 16.221 54.3261 16.221C54.6388 16.221 54.9351 16.1673 55.2151 16.06C55.4998 15.948 55.7518 15.7893 55.9711 15.584C56.1905 15.374 56.3631 15.1197 56.4891 14.821C56.6151 14.5223 56.6781 14.1863 56.6781 13.813V7.52001H58.3861V13.855C58.3861 14.653 58.2135 15.3483 57.8681 15.941C57.5275 16.5337 57.0515 16.9933 56.4401 17.32C55.8335 17.6467 55.1288 17.81 54.3261 17.81ZM61.3423 17.6V7.52001H65.3393C66.0206 7.52001 66.5783 7.65767 67.0123 7.93301C67.451 8.20367 67.7753 8.55134 67.9853 8.97601C68.2 9.40067 68.3073 9.83934 68.3073 10.292C68.3073 10.8473 68.1743 11.3187 67.9083 11.706C67.647 12.0933 67.29 12.3547 66.8373 12.49V12.14C67.472 12.2847 67.9526 12.5857 68.2793 13.043C68.6106 13.5003 68.7763 14.0207 68.7763 14.604C68.7763 15.2013 68.662 15.724 68.4333 16.172C68.2046 16.62 67.864 16.97 67.4113 17.222C66.9633 17.474 66.408 17.6 65.7453 17.6H61.3423ZM63.0503 16.011H65.5353C65.8293 16.011 66.093 15.9527 66.3263 15.836C66.5596 15.7147 66.7416 15.5467 66.8723 15.332C67.0076 15.1127 67.0753 14.8537 67.0753 14.555C67.0753 14.2843 67.017 14.0417 66.9003 13.827C66.7836 13.6123 66.6133 13.442 66.3893 13.316C66.1653 13.1853 65.897 13.12 65.5843 13.12H63.0503V16.011ZM63.0503 11.545H65.3183C65.561 11.545 65.778 11.4983 65.9693 11.405C66.1606 11.3117 66.3123 11.174 66.4243 10.992C66.5363 10.81 66.5923 10.586 66.5923 10.32C66.5923 9.97001 66.4803 9.67834 66.2563 9.44501C66.0323 9.21167 65.7196 9.09501 65.3183 9.09501H63.0503V11.545ZM71.1743 17.6V7.52001H75.3393C75.4373 7.52001 75.5633 7.52467 75.7173 7.53401C75.8713 7.53867 76.0137 7.55267 76.1443 7.57601C76.7277 7.66467 77.2083 7.85834 77.5863 8.15701C77.969 8.45567 78.2513 8.83367 78.4333 9.29101C78.62 9.74367 78.7133 10.2477 78.7133 10.803C78.7133 11.6243 78.5057 12.3313 78.0903 12.924C77.675 13.512 77.038 13.876 76.1793 14.016L75.4583 14.079H72.8613V17.6H71.1743ZM76.9633 17.6L74.9753 13.498L76.6903 13.12L78.8743 17.6H76.9633ZM72.8613 12.504H75.2693C75.3627 12.504 75.4677 12.4993 75.5843 12.49C75.701 12.4807 75.8083 12.462 75.9063 12.434C76.1863 12.364 76.4057 12.2403 76.5643 12.063C76.7277 11.8857 76.842 11.685 76.9073 11.461C76.9773 11.237 77.0123 11.0177 77.0123 10.803C77.0123 10.5883 76.9773 10.369 76.9073 10.145C76.842 9.91634 76.7277 9.71334 76.5643 9.53601C76.4057 9.35867 76.1863 9.23501 75.9063 9.16501C75.8083 9.13701 75.701 9.12067 75.5843 9.11601C75.4677 9.10667 75.3627 9.10201 75.2693 9.10201H72.8613V12.504ZM81.5565 17.6V7.52001H83.2435V17.6H81.5565ZM86.3404 17.6V7.52001H89.5534C89.6374 7.52001 89.803 7.52234 90.0504 7.52701C90.3024 7.53167 90.545 7.54801 90.7784 7.57601C91.5764 7.67867 92.2507 7.96334 92.8014 8.43001C93.3567 8.89201 93.7767 9.48234 94.0614 10.201C94.346 10.9197 94.4884 11.706 94.4884 12.56C94.4884 13.414 94.346 14.2003 94.0614 14.919C93.7767 15.6377 93.3567 16.2303 92.8014 16.697C92.2507 17.159 91.5764 17.4413 90.7784 17.544C90.5497 17.572 90.3094 17.5883 90.0574 17.593C89.8054 17.5977 89.6374 17.6 89.5534 17.6H86.3404ZM88.0554 16.011H89.5534C89.6934 16.011 89.8707 16.0063 90.0854 15.997C90.3047 15.9877 90.4984 15.9667 90.6664 15.934C91.1424 15.8453 91.5297 15.633 91.8284 15.297C92.127 14.961 92.3464 14.5527 92.4864 14.072C92.631 13.5913 92.7034 13.0873 92.7034 12.56C92.7034 12.014 92.631 11.5007 92.4864 11.02C92.3417 10.5393 92.1177 10.1357 91.8144 9.80901C91.5157 9.48234 91.133 9.27467 90.6664 9.18601C90.4984 9.14867 90.3047 9.12767 90.0854 9.12301C89.8707 9.11367 89.6934 9.10901 89.5534 9.10901H88.0554V16.011Z" fill="white"/>
<path d="M100.246 17.6L103.424 7.52001H105.895L109.073 17.6H107.337L104.453 8.55601H104.831L101.982 17.6H100.246ZM102.017 15.416V13.841H107.309V15.416H102.017ZM111.478 17.6V7.52001H113.165V17.6H111.478Z" fill="#DC389D"/>
<path d="M40.7158 28.82C40.3291 28.82 39.9731 28.7533 39.6478 28.62C39.3225 28.484 39.0398 28.2867 38.7998 28.028C38.5598 27.7693 38.3731 27.4547 38.2398 27.084C38.1065 26.7133 38.0398 26.292 38.0398 25.82C38.0398 25.1987 38.1531 24.6653 38.3798 24.22C38.6065 23.772 38.9211 23.428 39.3238 23.188C39.7265 22.9453 40.1905 22.824 40.7158 22.824C41.3931 22.824 41.9331 22.9813 42.3358 23.296C42.7411 23.6107 43.0171 24.0453 43.1638 24.6L42.3158 24.752C42.1985 24.408 42.0091 24.1333 41.7478 23.928C41.4865 23.7227 41.1585 23.6187 40.7638 23.616C40.3558 23.6133 40.0158 23.704 39.7438 23.888C39.4745 24.072 39.2718 24.3307 39.1358 24.664C38.9998 24.9947 38.9305 25.38 38.9278 25.82C38.9251 26.26 38.9918 26.6453 39.1278 26.976C39.2638 27.304 39.4678 27.56 39.7398 27.744C40.0145 27.928 40.3558 28.0213 40.7638 28.024C41.0918 28.0293 41.3731 27.9693 41.6078 27.844C41.8451 27.716 42.0331 27.5293 42.1718 27.284C42.3105 27.0387 42.3998 26.7373 42.4398 26.38H41.3198V25.708H43.3278C43.3331 25.756 43.3371 25.82 43.3398 25.9C43.3425 25.9773 43.3438 26.0267 43.3438 26.048C43.3438 26.5813 43.2411 27.0573 43.0358 27.476C42.8305 27.8947 42.5318 28.224 42.1398 28.464C41.7478 28.7013 41.2731 28.82 40.7158 28.82ZM44.1411 28.7V22.94H46.4691C46.5251 22.94 46.5944 22.9427 46.6771 22.948C46.7597 22.9507 46.8384 22.9587 46.9131 22.972C47.2331 23.0227 47.4997 23.132 47.7131 23.3C47.9291 23.468 48.0904 23.68 48.1971 23.936C48.3037 24.192 48.3571 24.4747 48.3571 24.784C48.3571 25.096 48.3037 25.38 48.1971 25.636C48.0904 25.892 47.9291 26.104 47.7131 26.272C47.4997 26.44 47.2331 26.5493 46.9131 26.6C46.8384 26.6107 46.7584 26.6187 46.6731 26.624C46.5904 26.6293 46.5224 26.632 46.4691 26.632H44.9771V28.7H44.1411ZM44.9771 25.84H46.4371C46.4904 25.84 46.5491 25.8373 46.6131 25.832C46.6797 25.8267 46.7424 25.8173 46.8011 25.804C46.9717 25.764 47.1091 25.6907 47.2131 25.584C47.3171 25.4747 47.3917 25.3493 47.4371 25.208C47.4824 25.0667 47.5051 24.9253 47.5051 24.784C47.5051 24.6427 47.4824 24.5027 47.4371 24.364C47.3917 24.2227 47.3171 24.0987 47.2131 23.992C47.1091 23.8827 46.9717 23.808 46.8011 23.768C46.7424 23.752 46.6797 23.7413 46.6131 23.736C46.5491 23.7307 46.4904 23.728 46.4371 23.728H44.9771V25.84ZM51.4527 28.82C51.002 28.82 50.6033 28.728 50.2567 28.544C49.9127 28.3573 49.6433 28.0973 49.4487 27.764C49.254 27.428 49.1567 27.0333 49.1567 26.58V22.944L50.0047 22.94V26.536C50.0047 26.7813 50.046 26.9973 50.1287 27.184C50.2113 27.3707 50.322 27.5267 50.4607 27.652C50.5993 27.7773 50.754 27.872 50.9247 27.936C51.098 28 51.274 28.032 51.4527 28.032C51.634 28.032 51.81 28 51.9807 27.936C52.154 27.8693 52.31 27.7733 52.4487 27.648C52.5873 27.5227 52.6967 27.3667 52.7767 27.18C52.8593 26.9933 52.9007 26.7787 52.9007 26.536V22.94H53.7487V26.58C53.7487 27.0307 53.6513 27.424 53.4567 27.76C53.262 28.096 52.9913 28.3573 52.6447 28.544C52.3007 28.728 51.9033 28.82 51.4527 28.82ZM58.5572 28.82C58.1438 28.82 57.7705 28.7493 57.4372 28.608C57.1065 28.464 56.8332 28.26 56.6172 27.996C56.4038 27.7293 56.2652 27.4133 56.2012 27.048L57.0732 26.916C57.1612 27.268 57.3452 27.5427 57.6252 27.74C57.9052 27.9347 58.2318 28.032 58.6052 28.032C58.8372 28.032 59.0505 27.996 59.2452 27.924C59.4398 27.8493 59.5958 27.744 59.7132 27.608C59.8332 27.4693 59.8932 27.304 59.8932 27.112C59.8932 27.008 59.8745 26.916 59.8372 26.836C59.8025 26.756 59.7532 26.6867 59.6892 26.628C59.6278 26.5667 59.5518 26.5147 59.4612 26.472C59.3732 26.4267 59.2758 26.388 59.1692 26.356L57.6932 25.92C57.5492 25.8773 57.4025 25.8227 57.2532 25.756C57.1038 25.6867 56.9665 25.5973 56.8412 25.488C56.7185 25.376 56.6185 25.2387 56.5412 25.076C56.4638 24.9107 56.4252 24.7107 56.4252 24.476C56.4252 24.1213 56.5158 23.8213 56.6972 23.576C56.8812 23.328 57.1292 23.1413 57.4412 23.016C57.7532 22.888 58.1025 22.824 58.4892 22.824C58.8785 22.8293 59.2265 22.8987 59.5332 23.032C59.8425 23.1653 60.0985 23.3573 60.3012 23.608C60.5065 23.856 60.6478 24.1573 60.7252 24.512L59.8292 24.664C59.7892 24.448 59.7038 24.2627 59.5732 24.108C59.4425 23.9507 59.2825 23.8307 59.0932 23.748C58.9038 23.6627 58.6985 23.6187 58.4772 23.616C58.2638 23.6107 58.0678 23.6427 57.8892 23.712C57.7132 23.7813 57.5718 23.8787 57.4652 24.004C57.3612 24.1293 57.3092 24.2733 57.3092 24.436C57.3092 24.596 57.3558 24.7253 57.4492 24.824C57.5425 24.9227 57.6572 25.0013 57.7932 25.06C57.9318 25.116 58.0692 25.1627 58.2052 25.2L59.2692 25.5C59.4025 25.5373 59.5532 25.588 59.7212 25.652C59.8918 25.7133 60.0558 25.8 60.2132 25.912C60.3732 26.024 60.5052 26.1733 60.6092 26.36C60.7132 26.544 60.7652 26.776 60.7652 27.056C60.7652 27.3467 60.7065 27.6027 60.5892 27.824C60.4718 28.0427 60.3105 28.2267 60.1052 28.376C59.9025 28.5227 59.6678 28.6333 59.4012 28.708C59.1345 28.7827 58.8532 28.82 58.5572 28.82ZM63.6456 28.82C63.2323 28.82 62.8856 28.72 62.6056 28.52C62.3256 28.3173 62.1136 28.044 61.9696 27.7C61.8256 27.356 61.7536 26.968 61.7536 26.536C61.7536 26.104 61.8243 25.716 61.9656 25.372C62.1096 25.028 62.3203 24.7573 62.5976 24.56C62.8776 24.36 63.2216 24.26 63.6296 24.26C64.035 24.26 64.3843 24.36 64.6776 24.56C64.9736 24.7573 65.2016 25.028 65.3616 25.372C65.5216 25.7133 65.6016 26.1013 65.6016 26.536C65.6016 26.968 65.5216 27.3573 65.3616 27.704C65.2043 28.048 64.979 28.32 64.6856 28.52C64.395 28.72 64.0483 28.82 63.6456 28.82ZM61.6136 30.62V24.38H62.3576V27.488H62.4536V30.62H61.6136ZM63.5296 28.064C63.7963 28.064 64.0163 27.996 64.1896 27.86C64.3656 27.724 64.4963 27.5413 64.5816 27.312C64.6696 27.08 64.7136 26.8213 64.7136 26.536C64.7136 26.2533 64.6696 25.9973 64.5816 25.768C64.4963 25.5387 64.3643 25.356 64.1856 25.22C64.007 25.084 63.779 25.016 63.5016 25.016C63.2403 25.016 63.0243 25.08 62.8536 25.208C62.6856 25.336 62.5603 25.5147 62.4776 25.744C62.3976 25.9733 62.3576 26.2373 62.3576 26.536C62.3576 26.8347 62.3976 27.0987 62.4776 27.328C62.5576 27.5573 62.6843 27.7373 62.8576 27.868C63.031 27.9987 63.255 28.064 63.5296 28.064ZM68.4008 28.82C67.9715 28.82 67.5941 28.7267 67.2688 28.54C66.9461 28.3507 66.6941 28.088 66.5128 27.752C66.3341 27.4133 66.2448 27.0213 66.2448 26.576C66.2448 26.104 66.3328 25.6947 66.5088 25.348C66.6875 25.0013 66.9355 24.7333 67.2528 24.544C67.5701 24.3547 67.9395 24.26 68.3608 24.26C68.8008 24.26 69.1755 24.3627 69.4848 24.568C69.7941 24.7707 70.0248 25.06 70.1768 25.436C70.3315 25.812 70.3928 26.2587 70.3608 26.776H69.5248V26.472C69.5195 25.9707 69.4235 25.6 69.2368 25.36C69.0528 25.12 68.7715 25 68.3928 25C67.9741 25 67.6595 25.132 67.4488 25.396C67.2381 25.66 67.1328 26.0413 67.1328 26.54C67.1328 27.0147 67.2381 27.3827 67.4488 27.644C67.6595 27.9027 67.9635 28.032 68.3608 28.032C68.6221 28.032 68.8475 27.9733 69.0368 27.856C69.2288 27.736 69.3781 27.5653 69.4848 27.344L70.3048 27.604C70.1368 27.9907 69.8821 28.2907 69.5408 28.504C69.1995 28.7147 68.8195 28.82 68.4008 28.82ZM66.8608 26.776V26.124H69.9448V26.776H66.8608ZM73.1742 28.82C72.7449 28.82 72.3676 28.7267 72.0422 28.54C71.7196 28.3507 71.4676 28.088 71.2862 27.752C71.1076 27.4133 71.0182 27.0213 71.0182 26.576C71.0182 26.104 71.1062 25.6947 71.2822 25.348C71.4609 25.0013 71.7089 24.7333 72.0262 24.544C72.3436 24.3547 72.7129 24.26 73.1342 24.26C73.5742 24.26 73.9489 24.3627 74.2582 24.568C74.5676 24.7707 74.7982 25.06 74.9502 25.436C75.1049 25.812 75.1662 26.2587 75.1342 26.776H74.2982V26.472C74.2929 25.9707 74.1969 25.6 74.0102 25.36C73.8262 25.12 73.5449 25 73.1662 25C72.7476 25 72.4329 25.132 72.2222 25.396C72.0116 25.66 71.9062 26.0413 71.9062 26.54C71.9062 27.0147 72.0116 27.3827 72.2222 27.644C72.4329 27.9027 72.7369 28.032 73.1342 28.032C73.3956 28.032 73.6209 27.9733 73.8102 27.856C74.0022 27.736 74.1516 27.5653 74.2582 27.344L75.0782 27.604C74.9102 27.9907 74.6556 28.2907 74.3142 28.504C73.9729 28.7147 73.5929 28.82 73.1742 28.82ZM71.6342 26.776V26.124H74.7182V26.776H71.6342ZM77.7477 28.82C77.345 28.82 76.997 28.72 76.7037 28.52C76.413 28.32 76.1877 28.048 76.0277 27.704C75.8703 27.3573 75.7917 26.968 75.7917 26.536C75.7917 26.1013 75.8717 25.7133 76.0317 25.372C76.1917 25.028 76.4183 24.7573 76.7117 24.56C77.0077 24.36 77.3583 24.26 77.7637 24.26C78.1717 24.26 78.5143 24.36 78.7917 24.56C79.0717 24.7573 79.2823 25.028 79.4237 25.372C79.5677 25.716 79.6397 26.104 79.6397 26.536C79.6397 26.968 79.5677 27.356 79.4237 27.7C79.2797 28.044 79.0677 28.3173 78.7877 28.52C78.5077 28.72 78.161 28.82 77.7477 28.82ZM77.8637 28.064C78.1383 28.064 78.3623 27.9987 78.5357 27.868C78.709 27.7373 78.8357 27.5573 78.9157 27.328C78.9957 27.0987 79.0357 26.8347 79.0357 26.536C79.0357 26.2373 78.9943 25.9733 78.9117 25.744C78.8317 25.5147 78.7063 25.336 78.5357 25.208C78.3677 25.08 78.153 25.016 77.8917 25.016C77.6143 25.016 77.3863 25.084 77.2077 25.22C77.029 25.356 76.8957 25.5387 76.8077 25.768C76.7223 25.9973 76.6797 26.2533 76.6797 26.536C76.6797 26.8213 76.7223 27.08 76.8077 27.312C76.8957 27.5413 77.0263 27.724 77.1997 27.86C77.3757 27.996 77.597 28.064 77.8637 28.064ZM79.0357 28.7V25.592H78.9397V22.94H79.7797V28.7H79.0357ZM82.6604 28.7V22.94H83.4964V28.7H82.6604ZM85.9754 28.7L87.8474 22.94H89.0514L90.9234 28.7H90.0554L88.3314 23.444H88.5474L86.8434 28.7H85.9754ZM86.9474 27.4V26.616H89.9554V27.4H86.9474ZM91.7211 28.7V22.94H92.5571V28.7H91.7211ZM94.9598 28.7L96.8318 22.94H98.0358L99.9078 28.7H99.0398L97.3158 23.444H97.5318L95.8278 28.7H94.9598ZM95.9318 27.4V26.616H98.9398V27.4H95.9318ZM102.473 28.82C102.031 28.82 101.655 28.7213 101.345 28.524C101.036 28.3267 100.799 28.056 100.633 27.712C100.471 27.368 100.388 26.9773 100.385 26.54C100.388 26.0947 100.473 25.7013 100.641 25.36C100.809 25.016 101.049 24.7467 101.361 24.552C101.673 24.3573 102.048 24.26 102.485 24.26C102.957 24.26 103.36 24.3773 103.693 24.612C104.029 24.8467 104.251 25.168 104.357 25.576L103.525 25.816C103.443 25.5733 103.307 25.3853 103.117 25.252C102.931 25.116 102.716 25.048 102.473 25.048C102.199 25.048 101.973 25.1133 101.797 25.244C101.621 25.372 101.491 25.548 101.405 25.772C101.32 25.996 101.276 26.252 101.273 26.54C101.276 26.9853 101.377 27.3453 101.577 27.62C101.78 27.8947 102.079 28.032 102.473 28.032C102.743 28.032 102.96 27.9707 103.125 27.848C103.293 27.7227 103.421 27.544 103.509 27.312L104.357 27.512C104.216 27.9333 103.983 28.2573 103.657 28.484C103.332 28.708 102.937 28.82 102.473 28.82ZM106.903 28.82C106.46 28.82 106.084 28.7213 105.775 28.524C105.466 28.3267 105.228 28.056 105.063 27.712C104.9 27.368 104.818 26.9773 104.815 26.54C104.818 26.0947 104.903 25.7013 105.071 25.36C105.239 25.016 105.479 24.7467 105.791 24.552C106.103 24.3573 106.478 24.26 106.915 24.26C107.387 24.26 107.79 24.3773 108.123 24.612C108.459 24.8467 108.68 25.168 108.787 25.576L107.955 25.816C107.872 25.5733 107.736 25.3853 107.547 25.252C107.36 25.116 107.146 25.048 106.903 25.048C106.628 25.048 106.403 25.1133 106.227 25.244C106.051 25.372 105.92 25.548 105.835 25.772C105.75 25.996 105.706 26.252 105.703 26.54C105.706 26.9853 105.807 27.3453 106.007 27.62C106.21 27.8947 106.508 28.032 106.903 28.032C107.172 28.032 107.39 27.9707 107.555 27.848C107.723 27.7227 107.851 27.544 107.939 27.312L108.787 27.512C108.646 27.9333 108.412 28.2573 108.087 28.484C107.762 28.708 107.367 28.82 106.903 28.82ZM111.401 28.82C110.971 28.82 110.594 28.7267 110.269 28.54C109.946 28.3507 109.694 28.088 109.513 27.752C109.334 27.4133 109.245 27.0213 109.245 26.576C109.245 26.104 109.333 25.6947 109.509 25.348C109.687 25.0013 109.935 24.7333 110.253 24.544C110.57 24.3547 110.939 24.26 111.361 24.26C111.801 24.26 112.175 24.3627 112.485 24.568C112.794 24.7707 113.025 25.06 113.177 25.436C113.331 25.812 113.393 26.2587 113.361 26.776H112.525V26.472C112.519 25.9707 112.423 25.6 112.237 25.36C112.053 25.12 111.771 25 111.393 25C110.974 25 110.659 25.132 110.449 25.396C110.238 25.66 110.133 26.0413 110.133 26.54C110.133 27.0147 110.238 27.3827 110.449 27.644C110.659 27.9027 110.963 28.032 111.361 28.032C111.622 28.032 111.847 27.9733 112.037 27.856C112.229 27.736 112.378 27.5653 112.485 27.344L113.305 27.604C113.137 27.9907 112.882 28.2907 112.541 28.504C112.199 28.7147 111.819 28.82 111.401 28.82ZM109.861 26.776V26.124H112.945V26.776H109.861ZM114.338 28.7V22.82H115.174V28.7H114.338ZM118.291 28.82C117.862 28.82 117.485 28.7267 117.159 28.54C116.837 28.3507 116.585 28.088 116.403 27.752C116.225 27.4133 116.135 27.0213 116.135 26.576C116.135 26.104 116.223 25.6947 116.399 25.348C116.578 25.0013 116.826 24.7333 117.143 24.544C117.461 24.3547 117.83 24.26 118.251 24.26C118.691 24.26 119.066 24.3627 119.375 24.568C119.685 24.7707 119.915 25.06 120.067 25.436C120.222 25.812 120.283 26.2587 120.251 26.776H119.415V26.472C119.41 25.9707 119.314 25.6 119.127 25.36C118.943 25.12 118.662 25 118.283 25C117.865 25 117.55 25.132 117.339 25.396C117.129 25.66 117.023 26.0413 117.023 26.54C117.023 27.0147 117.129 27.3827 117.339 27.644C117.55 27.9027 117.854 28.032 118.251 28.032C118.513 28.032 118.738 27.9733 118.927 27.856C119.119 27.736 119.269 27.5653 119.375 27.344L120.195 27.604C120.027 27.9907 119.773 28.2907 119.431 28.504C119.09 28.7147 118.71 28.82 118.291 28.82ZM116.751 26.776V26.124H119.835V26.776H116.751ZM121.149 28.7V24.38H121.893V25.428L121.789 25.292C121.842 25.1533 121.912 25.0267 121.997 24.912C122.082 24.7947 122.181 24.6987 122.293 24.624C122.402 24.544 122.524 24.4827 122.657 24.44C122.793 24.3947 122.932 24.368 123.073 24.36C123.214 24.3493 123.35 24.356 123.481 24.38V25.164C123.34 25.1267 123.182 25.116 123.009 25.132C122.838 25.148 122.681 25.2027 122.537 25.296C122.401 25.384 122.293 25.4907 122.213 25.616C122.136 25.7413 122.08 25.8813 122.045 26.036C122.01 26.188 121.993 26.3493 121.993 26.52V28.7H121.149ZM125.338 28.82C125.018 28.82 124.75 28.7613 124.534 28.644C124.318 28.524 124.154 28.3667 124.042 28.172C123.932 27.9747 123.878 27.7587 123.878 27.524C123.878 27.3053 123.916 27.1133 123.994 26.948C124.071 26.7827 124.186 26.6427 124.338 26.528C124.49 26.4107 124.676 26.316 124.898 26.244C125.09 26.188 125.307 26.1387 125.55 26.096C125.792 26.0533 126.047 26.0133 126.314 25.976C126.583 25.9387 126.85 25.9013 127.114 25.864L126.81 26.032C126.815 25.6933 126.743 25.4427 126.594 25.28C126.447 25.1147 126.194 25.032 125.834 25.032C125.607 25.032 125.399 25.0853 125.21 25.192C125.02 25.296 124.888 25.4693 124.814 25.712L124.034 25.472C124.14 25.1013 124.343 24.8067 124.642 24.588C124.943 24.3693 125.343 24.26 125.842 24.26C126.228 24.26 126.564 24.3267 126.85 24.46C127.138 24.5907 127.348 24.7987 127.482 25.084C127.551 25.2253 127.594 25.3747 127.61 25.532C127.626 25.6893 127.634 25.8587 127.634 26.04V28.7H126.894V27.712L127.038 27.84C126.859 28.1707 126.631 28.4173 126.354 28.58C126.079 28.74 125.74 28.82 125.338 28.82ZM125.486 28.136C125.723 28.136 125.927 28.0947 126.098 28.012C126.268 27.9267 126.406 27.8187 126.51 27.688C126.614 27.5573 126.682 27.4213 126.714 27.28C126.759 27.152 126.784 27.008 126.79 26.848C126.798 26.688 126.802 26.56 126.802 26.464L127.074 26.564C126.81 26.604 126.57 26.64 126.354 26.672C126.138 26.704 125.942 26.736 125.766 26.768C125.592 26.7973 125.438 26.8333 125.302 26.876C125.187 26.916 125.084 26.964 124.994 27.02C124.906 27.076 124.835 27.144 124.782 27.224C124.731 27.304 124.706 27.4013 124.706 27.516C124.706 27.628 124.734 27.732 124.79 27.828C124.846 27.9213 124.931 27.996 125.046 28.052C125.16 28.108 125.307 28.136 125.486 28.136ZM131.144 28.7C130.872 28.7533 130.606 28.776 130.344 28.768C130.083 28.76 129.85 28.7093 129.644 28.616C129.439 28.5227 129.284 28.376 129.18 28.176C129.087 27.9973 129.036 27.816 129.028 27.632C129.023 27.4453 129.02 27.2347 129.02 27V23.18H129.86V26.96C129.86 27.1333 129.862 27.284 129.864 27.412C129.87 27.54 129.898 27.648 129.948 27.736C130.044 27.9013 130.196 27.996 130.404 28.02C130.615 28.0413 130.862 28.032 131.144 27.992V28.7ZM128.192 25.052V24.38H131.144V25.052H128.192ZM132.135 23.672V22.86H132.971V23.672H132.135ZM132.135 28.7V24.38H132.971V28.7H132.135ZM136.048 28.82C135.616 28.82 135.242 28.7227 134.924 28.528C134.607 28.3333 134.362 28.0653 134.188 27.724C134.018 27.38 133.932 26.984 133.932 26.536C133.932 26.0853 134.02 25.6893 134.196 25.348C134.372 25.004 134.619 24.7373 134.936 24.548C135.254 24.356 135.624 24.26 136.048 24.26C136.48 24.26 136.855 24.3573 137.172 24.552C137.49 24.7467 137.735 25.0147 137.908 25.356C138.082 25.6973 138.168 26.0907 138.168 26.536C138.168 26.9867 138.08 27.384 137.904 27.728C137.731 28.0693 137.486 28.3373 137.168 28.532C136.851 28.724 136.478 28.82 136.048 28.82ZM136.048 28.032C136.462 28.032 136.77 27.8933 136.972 27.616C137.178 27.336 137.28 26.976 137.28 26.536C137.28 26.0853 137.176 25.7253 136.968 25.456C136.763 25.184 136.456 25.048 136.048 25.048C135.768 25.048 135.538 25.112 135.356 25.24C135.175 25.3653 135.04 25.54 134.952 25.764C134.864 25.9853 134.82 26.2427 134.82 26.536C134.82 26.9893 134.924 27.352 135.132 27.624C135.34 27.896 135.646 28.032 136.048 28.032ZM142.079 28.7V26.576C142.079 26.408 142.065 26.236 142.035 26.06C142.009 25.8813 141.955 25.716 141.875 25.564C141.798 25.412 141.687 25.2893 141.543 25.196C141.402 25.1027 141.217 25.056 140.987 25.056C140.838 25.056 140.697 25.0813 140.563 25.132C140.43 25.18 140.313 25.2587 140.211 25.368C140.113 25.4773 140.034 25.6213 139.975 25.8C139.919 25.9787 139.891 26.196 139.891 26.452L139.371 26.256C139.371 25.864 139.445 25.5187 139.591 25.22C139.738 24.9187 139.949 24.684 140.223 24.516C140.498 24.348 140.83 24.264 141.219 24.264C141.518 24.264 141.769 24.312 141.971 24.408C142.174 24.504 142.338 24.6307 142.463 24.788C142.591 24.9427 142.689 25.112 142.755 25.296C142.822 25.48 142.867 25.66 142.891 25.836C142.915 26.012 142.927 26.1667 142.927 26.3V28.7H142.079ZM139.043 28.7V24.38H139.791V25.628H139.891V28.7H139.043Z" fill="white" fill-opacity="0.8"/>
<path d="M22.4995 4.20876L11.4126 10.7039V12.7547L20.4526 7.6277L31.5396 14.1218V16.5154L20.4526 10.1912L18.7466 11.2166L27.7876 16.5154L27.6167 29.6756L16.3589 35.9998L14.1411 34.8035L25.3989 28.3084V17.8826L23.6938 16.8572V27.1121L12.2651 33.7781L10.2183 32.4109L21.4761 25.9158V23.6941L12.2651 29.1629L1.00732 22.4978L1.17822 19.7625L12.2651 26.4285L14.1411 25.4031L5.10107 20.1043V6.94411L7.31885 5.74684V18.7371L9.02393 19.7625V9.33669L20.4526 2.84157L22.4995 4.20876ZM11.4126 15.659V21.1287L16.3589 23.8631L21.3052 21.1287V15.659L16.5298 12.7537L11.4126 15.659Z" fill="url(#paint6_linear_12151_6364)"/>
<path d="M1.18408 9.50592L3.23095 8.13857V19.0774L1.18408 17.881V9.50592Z" fill="url(#paint7_linear_12151_6364)"/>
<path d="M31.5479 27.2847L29.501 28.4812V17.5423L31.5479 18.5678V27.2847Z" fill="url(#paint8_linear_12151_6364)"/>
<path d="M31.5414 9.33765L31.5414 12.0724L22.1607 6.60256L24.3781 5.23535L31.5414 9.33765Z" fill="url(#paint9_linear_12151_6364)"/>
<path d="M16.3654 0.619584L18.5826 1.98738L9.03032 7.45726L9.03032 4.89347L16.3654 0.619584Z" fill="url(#paint10_linear_12151_6364)"/>
<path d="M1.18176 27.2833L1.18177 24.5486L10.5633 30.018L8.34581 31.3854L1.18176 27.2833Z" fill="url(#paint11_linear_12151_6364)"/>
<defs>
<linearGradient id="paint0_linear_12151_6364" x1="16.5564" y1="6.29556" x2="16.2861" y2="35.9999" gradientUnits="userSpaceOnUse">
<stop stop-color="#DC389D"/>
<stop offset="1" stop-color="#8624C5"/>
</linearGradient>
<linearGradient id="paint1_linear_12151_6364" x1="2.22649" y1="9.27803" x2="1.78847" y2="19.0587" gradientUnits="userSpaceOnUse">
<stop stop-color="#DC389D"/>
<stop offset="1" stop-color="#8624C5"/>
</linearGradient>
<linearGradient id="paint2_linear_12151_6364" x1="30.5054" y1="27.3417" x2="30.9435" y2="17.5611" gradientUnits="userSpaceOnUse">
<stop stop-color="#DC389D"/>
<stop offset="1" stop-color="#8624C5"/>
</linearGradient>
<linearGradient id="paint3_linear_12151_6364" x1="31.1422" y1="10.4994" x2="22.9112" y2="5.32584" gradientUnits="userSpaceOnUse">
<stop stop-color="#DC389D"/>
<stop offset="1" stop-color="#8624C5"/>
</linearGradient>
<linearGradient id="paint4_linear_12151_6364" x1="17.1305" y1="1.69785" x2="8.27437" y2="6.00992" gradientUnits="userSpaceOnUse">
<stop stop-color="#DC389D"/>
<stop offset="1" stop-color="#8624C5"/>
</linearGradient>
<linearGradient id="paint5_linear_12151_6364" x1="1.58097" y1="26.1216" x2="9.81241" y2="31.2954" gradientUnits="userSpaceOnUse">
<stop stop-color="#DC389D"/>
<stop offset="1" stop-color="#8624C5"/>
</linearGradient>
<linearGradient id="paint6_linear_12151_6364" x1="16.5564" y1="6.29556" x2="16.2861" y2="35.9999" gradientUnits="userSpaceOnUse">
<stop stop-color="#DC389D"/>
<stop offset="1" stop-color="#8624C5"/>
</linearGradient>
<linearGradient id="paint7_linear_12151_6364" x1="2.22649" y1="9.27803" x2="1.78847" y2="19.0587" gradientUnits="userSpaceOnUse">
<stop stop-color="#DC389D"/>
<stop offset="1" stop-color="#8624C5"/>
</linearGradient>
<linearGradient id="paint8_linear_12151_6364" x1="30.5054" y1="27.3417" x2="30.9435" y2="17.5611" gradientUnits="userSpaceOnUse">
<stop stop-color="#DC389D"/>
<stop offset="1" stop-color="#8624C5"/>
</linearGradient>
<linearGradient id="paint9_linear_12151_6364" x1="31.1422" y1="10.4994" x2="22.9112" y2="5.32584" gradientUnits="userSpaceOnUse">
<stop stop-color="#DC389D"/>
<stop offset="1" stop-color="#8624C5"/>
</linearGradient>
<linearGradient id="paint10_linear_12151_6364" x1="17.1305" y1="1.69785" x2="8.27437" y2="6.00992" gradientUnits="userSpaceOnUse">
<stop stop-color="#DC389D"/>
<stop offset="1" stop-color="#8624C5"/>
</linearGradient>
<linearGradient id="paint11_linear_12151_6364" x1="1.58097" y1="26.1216" x2="9.81241" y2="31.2954" gradientUnits="userSpaceOnUse">
<stop stop-color="#DC389D"/>
<stop offset="1" stop-color="#8624C5"/>
</linearGradient>
</defs>
</svg>
